<svg width="48" height="48" viewBox="0 0 48 48" fill="none" xmlns="http://www.w3.org/2000/svg">
<mask id="mask0_1660_5089" style="mask-type:alpha" maskUnits="userSpaceOnUse" x="0" y="0" width="48" height="48">
<rect width="48" height="48" fill="#70C1D6"/>
</mask>
<g mask="url(#mask0_1660_5089)">
<path d="M15 12C14.1667 12 13.4583 12.2917 12.875 12.875C12.2917 13.4583 12 14.1667 12 15C12 15.8333 12.2917 16.5417 12.875 17.125C13.4583 17.7083 14.1667 18 15 18C15.8333 18 16.5417 17.7083 17.125 17.125C17.7083 16.5417 18 15.8333 18 15C18 14.1667 17.7083 13.4583 17.125 12.875C16.5417 12.2917 15.8333 12 15 12ZM15 32C14.1667 32 13.4583 32.2917 12.875 32.875C12.2917 33.4583 12 34.1667 12 35C12 35.8333 12.2917 36.5417 12.875 37.125C13.4583 37.7083 14.1667 38 15 38C15.8333 38 16.5417 37.7083 17.125 37.125C17.7083 36.5417 18 35.8333 18 35C18 34.1667 17.7083 33.4583 17.125 32.875C16.5417 32.2917 15.8333 32 15 32ZM8 6H40C40.5667 6 41.0417 6.19167 41.425 6.575C41.8083 6.95833 42 7.43333 42 8V22C42 22.5667 41.8083 23.0417 41.425 23.425C41.0417 23.8083 40.5667 24 40 24H8C7.43333 24 6.95833 23.8083 6.575 23.425C6.19167 23.0417 6 22.5667 6 22V8C6 7.43333 6.19167 6.95833 6.575 6.575C6.95833 6.19167 7.43333 6 8 6ZM10 10V20H38V10H10ZM8 26H40C40.5667 26 41.0417 26.1917 41.425 26.575C41.8083 26.9583 42 27.4333 42 28V42C42 42.5667 41.8083 43.0417 41.425 43.425C41.0417 43.8083 40.5667 44 40 44H8C7.43333 44 6.95833 43.8083 6.575 43.425C6.19167 43.0417 6 42.5667 6 42V28C6 27.4333 6.19167 26.9583 6.575 26.575C6.95833 26.1917 7.43333 26 8 26ZM10 30V40H38V30H10Z" fill="#70C1D6"/>
</g>
</svg>
