<svg width="48" height="48" viewBox="0 0 48 48" fill="none" xmlns="http://www.w3.org/2000/svg">
<rect width="48" height="48" rx="24" fill="white" fill-opacity="0.5"/>
<path d="M22 35.8667C16.3333 34.8667 12 29.9333 12 24C12 17.4 17.4 12 24 12C30.6 12 36 17.4 36 24C36 29.9333 31.6667 34.8667 26 35.8667L25.3333 35.3333H22.6667L22 35.8667Z" fill="url(#paint0_linear_1902_3356)"/>
<path d="M28.6667 27.3307L29.2 23.9974H26V21.6641C26 20.7307 26.3333 19.9974 27.8 19.9974H29.3333V16.9307C28.4667 16.7974 27.5333 16.6641 26.6667 16.6641C23.9333 16.6641 22 18.3307 22 21.3307V23.9974H19V27.3307H22V35.7974C22.6667 35.9307 23.3333 35.9974 24 35.9974C24.6667 35.9974 25.3333 35.9307 26 35.7974V27.3307H28.6667Z" fill="white"/>
<defs>
<linearGradient id="paint0_linear_1902_3356" x1="24" y1="35.1693" x2="24" y2="12" gradientUnits="userSpaceOnUse">
<stop stop-color="#0062E0"/>
<stop offset="1" stop-color="#19AFFF"/>
</linearGradient>
</defs>
</svg>
