<svg width="48" height="48" viewBox="0 0 48 48" fill="none" xmlns="http://www.w3.org/2000/svg">
<rect width="48" height="48" rx="24" fill="white" fill-opacity="0.5"/>
<path d="M12.6665 14.2729C12.6665 13.3844 13.3868 12.6641 14.2754 12.6641H33.7243C34.6128 12.6641 35.3332 13.3844 35.3332 14.2729V33.7218C35.3332 34.6103 34.6129 35.3307 33.7243 35.3307H14.2754C13.3868 35.3307 12.6665 34.6103 12.6665 33.7218V14.2729Z" fill="#0A66C2"/>
<path d="M17.7544 19.7061C18.8404 19.7061 19.7207 18.8257 19.7207 17.7398C19.7207 16.6538 18.8404 15.7734 17.7544 15.7734C16.6684 15.7734 15.7881 16.6538 15.7881 17.7398C15.7881 18.8257 16.6684 19.7061 17.7544 19.7061Z" fill="white"/>
<path d="M21.5216 21.1593H24.7804V22.6522C24.7804 22.6522 25.6647 20.8835 28.0709 20.8835C30.2173 20.8835 31.9953 21.9409 31.9953 25.1638V31.96H28.6182V25.9873C28.6182 24.0861 27.6032 23.877 26.8297 23.877C25.2246 23.877 24.9498 25.2615 24.9498 26.2353V31.96H21.5216V21.1593Z" fill="white"/>
<path d="M16.0403 21.1593H19.4685V31.96H16.0403V21.1593Z" fill="white"/>
</svg>
